<mxfile host="Electron" agent="Mozilla/5.0 (Macintosh; Intel Mac OS X 10_15_7) AppleWebKit/537.36 (KHTML, like Gecko) draw.io/26.0.16 Chrome/132.0.6834.196 Electron/34.2.0 Safari/537.36" version="26.0.16">
  <diagram name="第 1 页" id="tShTI07xu-yFWbHq91X1">
    <mxGraphModel dx="2181" dy="769" grid="1" gridSize="10" guides="1" tooltips="1" connect="1" arrows="1" fold="1" page="1" pageScale="1" pageWidth="827" pageHeight="1169" math="0" shadow="0">
      <root>
        <mxCell id="0" />
        <mxCell id="1" parent="0" />
        <mxCell id="1J7TocMi_kV23fuvjRg4-1" value="value" style="rounded=0;whiteSpace=wrap;html=1;fillColor=#ffe6cc;strokeColor=#d79b00;" vertex="1" parent="1">
          <mxGeometry x="320" y="360" width="100" height="30" as="geometry" />
        </mxCell>
        <mxCell id="1J7TocMi_kV23fuvjRg4-2" value="len" style="rounded=0;whiteSpace=wrap;html=1;fillColor=#ffe6cc;strokeColor=#d79b00;" vertex="1" parent="1">
          <mxGeometry x="320" y="390" width="100" height="30" as="geometry" />
        </mxCell>
        <mxCell id="1J7TocMi_kV23fuvjRg4-3" value="key" style="rounded=0;whiteSpace=wrap;html=1;fillColor=#ffe6cc;strokeColor=#d79b00;" vertex="1" parent="1">
          <mxGeometry x="320" y="420" width="100" height="30" as="geometry" />
        </mxCell>
        <mxCell id="1J7TocMi_kV23fuvjRg4-4" value="value" style="rounded=0;whiteSpace=wrap;html=1;fillColor=#ffe6cc;strokeColor=#d79b00;" vertex="1" parent="1">
          <mxGeometry x="420" y="360" width="100" height="30" as="geometry" />
        </mxCell>
        <mxCell id="1J7TocMi_kV23fuvjRg4-5" value="len" style="rounded=0;whiteSpace=wrap;html=1;fillColor=#ffe6cc;strokeColor=#d79b00;" vertex="1" parent="1">
          <mxGeometry x="420" y="390" width="100" height="30" as="geometry" />
        </mxCell>
        <mxCell id="1J7TocMi_kV23fuvjRg4-6" value="key" style="rounded=0;whiteSpace=wrap;html=1;fillColor=#ffe6cc;strokeColor=#d79b00;" vertex="1" parent="1">
          <mxGeometry x="420" y="420" width="100" height="30" as="geometry" />
        </mxCell>
        <mxCell id="1J7TocMi_kV23fuvjRg4-7" value="value" style="rounded=0;whiteSpace=wrap;html=1;fillColor=#ffe6cc;strokeColor=#d79b00;" vertex="1" parent="1">
          <mxGeometry x="520" y="360" width="100" height="30" as="geometry" />
        </mxCell>
        <mxCell id="1J7TocMi_kV23fuvjRg4-8" value="len" style="rounded=0;whiteSpace=wrap;html=1;fillColor=#ffe6cc;strokeColor=#d79b00;" vertex="1" parent="1">
          <mxGeometry x="520" y="390" width="100" height="30" as="geometry" />
        </mxCell>
        <mxCell id="1J7TocMi_kV23fuvjRg4-9" value="key" style="rounded=0;whiteSpace=wrap;html=1;fillColor=#ffe6cc;strokeColor=#d79b00;" vertex="1" parent="1">
          <mxGeometry x="520" y="420" width="100" height="30" as="geometry" />
        </mxCell>
        <mxCell id="1J7TocMi_kV23fuvjRg4-10" value="NULL" style="rounded=0;whiteSpace=wrap;html=1;fillColor=#ffe6cc;strokeColor=#d79b00;" vertex="1" parent="1">
          <mxGeometry x="620" y="360" width="100" height="90" as="geometry" />
        </mxCell>
        <mxCell id="1J7TocMi_kV23fuvjRg4-11" value="value" style="rounded=0;whiteSpace=wrap;html=1;fillColor=#f8cecc;strokeColor=#b85450;" vertex="1" parent="1">
          <mxGeometry x="720" y="360" width="100" height="30" as="geometry" />
        </mxCell>
        <mxCell id="1J7TocMi_kV23fuvjRg4-12" value="len" style="rounded=0;whiteSpace=wrap;html=1;fillColor=#f8cecc;strokeColor=#b85450;" vertex="1" parent="1">
          <mxGeometry x="720" y="390" width="100" height="30" as="geometry" />
        </mxCell>
        <mxCell id="1J7TocMi_kV23fuvjRg4-13" value="key" style="rounded=0;whiteSpace=wrap;html=1;fillColor=#f8cecc;strokeColor=#b85450;" vertex="1" parent="1">
          <mxGeometry x="720" y="420" width="100" height="30" as="geometry" />
        </mxCell>
        <mxCell id="1J7TocMi_kV23fuvjRg4-20" value="NULL" style="rounded=0;whiteSpace=wrap;html=1;fillColor=#f8cecc;strokeColor=#b85450;" vertex="1" parent="1">
          <mxGeometry x="820" y="360" width="100" height="90" as="geometry" />
        </mxCell>
        <mxCell id="1J7TocMi_kV23fuvjRg4-21" value="value" style="rounded=0;whiteSpace=wrap;html=1;fillColor=#dae8fc;strokeColor=#6c8ebf;" vertex="1" parent="1">
          <mxGeometry x="920" y="360" width="100" height="30" as="geometry" />
        </mxCell>
        <mxCell id="1J7TocMi_kV23fuvjRg4-22" value="len" style="rounded=0;whiteSpace=wrap;html=1;fillColor=#dae8fc;strokeColor=#6c8ebf;" vertex="1" parent="1">
          <mxGeometry x="920" y="390" width="100" height="30" as="geometry" />
        </mxCell>
        <mxCell id="1J7TocMi_kV23fuvjRg4-23" value="key" style="rounded=0;whiteSpace=wrap;html=1;fillColor=#dae8fc;strokeColor=#6c8ebf;" vertex="1" parent="1">
          <mxGeometry x="920" y="420" width="100" height="30" as="geometry" />
        </mxCell>
        <mxCell id="1J7TocMi_kV23fuvjRg4-24" value="value" style="rounded=0;whiteSpace=wrap;html=1;fillColor=#dae8fc;strokeColor=#6c8ebf;" vertex="1" parent="1">
          <mxGeometry x="1020" y="360" width="100" height="30" as="geometry" />
        </mxCell>
        <mxCell id="1J7TocMi_kV23fuvjRg4-25" value="len" style="rounded=0;whiteSpace=wrap;html=1;fillColor=#dae8fc;strokeColor=#6c8ebf;" vertex="1" parent="1">
          <mxGeometry x="1020" y="390" width="100" height="30" as="geometry" />
        </mxCell>
        <mxCell id="1J7TocMi_kV23fuvjRg4-26" value="key" style="rounded=0;whiteSpace=wrap;html=1;fillColor=#dae8fc;strokeColor=#6c8ebf;" vertex="1" parent="1">
          <mxGeometry x="1020" y="420" width="100" height="30" as="geometry" />
        </mxCell>
        <mxCell id="1J7TocMi_kV23fuvjRg4-30" value="NULL" style="rounded=0;whiteSpace=wrap;html=1;fillColor=#dae8fc;strokeColor=#6c8ebf;" vertex="1" parent="1">
          <mxGeometry x="1120" y="360" width="100" height="90" as="geometry" />
        </mxCell>
        <mxCell id="1J7TocMi_kV23fuvjRg4-32" value="" style="endArrow=classic;startArrow=classic;html=1;rounded=0;" edge="1" parent="1">
          <mxGeometry width="50" height="50" relative="1" as="geometry">
            <mxPoint x="320" y="460" as="sourcePoint" />
            <mxPoint x="720" y="460" as="targetPoint" />
          </mxGeometry>
        </mxCell>
        <mxCell id="1J7TocMi_kV23fuvjRg4-33" value="桶1" style="text;html=1;align=center;verticalAlign=middle;whiteSpace=wrap;rounded=0;" vertex="1" parent="1">
          <mxGeometry x="480" y="460" width="60" height="30" as="geometry" />
        </mxCell>
        <mxCell id="1J7TocMi_kV23fuvjRg4-34" value="" style="endArrow=classic;startArrow=classic;html=1;rounded=0;" edge="1" parent="1">
          <mxGeometry width="50" height="50" relative="1" as="geometry">
            <mxPoint x="920" y="460" as="sourcePoint" />
            <mxPoint x="1220" y="460" as="targetPoint" />
          </mxGeometry>
        </mxCell>
        <mxCell id="1J7TocMi_kV23fuvjRg4-35" value="" style="endArrow=classic;startArrow=classic;html=1;rounded=0;" edge="1" parent="1">
          <mxGeometry width="50" height="50" relative="1" as="geometry">
            <mxPoint x="720" y="460" as="sourcePoint" />
            <mxPoint x="920" y="460" as="targetPoint" />
          </mxGeometry>
        </mxCell>
        <mxCell id="1J7TocMi_kV23fuvjRg4-36" value="桶2" style="text;html=1;align=center;verticalAlign=middle;whiteSpace=wrap;rounded=0;" vertex="1" parent="1">
          <mxGeometry x="800" y="460" width="60" height="30" as="geometry" />
        </mxCell>
        <mxCell id="1J7TocMi_kV23fuvjRg4-37" value="桶3" style="text;html=1;align=center;verticalAlign=middle;whiteSpace=wrap;rounded=0;" vertex="1" parent="1">
          <mxGeometry x="1050" y="460" width="60" height="30" as="geometry" />
        </mxCell>
        <mxCell id="1J7TocMi_kV23fuvjRg4-40" style="edgeStyle=orthogonalEdgeStyle;rounded=0;orthogonalLoop=1;jettySize=auto;html=1;exitX=1;exitY=0.5;exitDx=0;exitDy=0;entryX=0;entryY=0;entryDx=0;entryDy=0;" edge="1" parent="1" source="1J7TocMi_kV23fuvjRg4-38" target="1J7TocMi_kV23fuvjRg4-1">
          <mxGeometry relative="1" as="geometry" />
        </mxCell>
        <mxCell id="1J7TocMi_kV23fuvjRg4-38" value="buckets" style="rounded=0;whiteSpace=wrap;html=1;" vertex="1" parent="1">
          <mxGeometry x="100" y="280" width="100" height="40" as="geometry" />
        </mxCell>
        <mxCell id="1J7TocMi_kV23fuvjRg4-39" value="zise=3" style="rounded=0;whiteSpace=wrap;html=1;" vertex="1" parent="1">
          <mxGeometry x="100" y="320" width="100" height="40" as="geometry" />
        </mxCell>
        <mxCell id="1J7TocMi_kV23fuvjRg4-45" style="edgeStyle=orthogonalEdgeStyle;rounded=0;orthogonalLoop=1;jettySize=auto;html=1;exitX=1;exitY=0.5;exitDx=0;exitDy=0;entryX=0;entryY=0;entryDx=0;entryDy=0;" edge="1" parent="1" source="1J7TocMi_kV23fuvjRg4-41" target="1J7TocMi_kV23fuvjRg4-38">
          <mxGeometry relative="1" as="geometry" />
        </mxCell>
        <mxCell id="1J7TocMi_kV23fuvjRg4-41" value="hash" style="rounded=0;whiteSpace=wrap;html=1;" vertex="1" parent="1">
          <mxGeometry x="-130" y="210" width="100" height="40" as="geometry" />
        </mxCell>
        <mxCell id="1J7TocMi_kV23fuvjRg4-42" value="key" style="rounded=0;whiteSpace=wrap;html=1;" vertex="1" parent="1">
          <mxGeometry x="-130" y="250" width="100" height="40" as="geometry" />
        </mxCell>
        <mxCell id="1J7TocMi_kV23fuvjRg4-43" value="max_size" style="rounded=0;whiteSpace=wrap;html=1;" vertex="1" parent="1">
          <mxGeometry x="-130" y="290" width="100" height="40" as="geometry" />
        </mxCell>
        <mxCell id="1J7TocMi_kV23fuvjRg4-44" value="bucket_size" style="rounded=0;whiteSpace=wrap;html=1;" vertex="1" parent="1">
          <mxGeometry x="-130" y="330" width="100" height="40" as="geometry" />
        </mxCell>
        <mxCell id="1J7TocMi_kV23fuvjRg4-46" value="name" style="rounded=0;whiteSpace=wrap;html=1;" vertex="1" parent="1">
          <mxGeometry x="-130" y="370" width="100" height="40" as="geometry" />
        </mxCell>
        <mxCell id="1J7TocMi_kV23fuvjRg4-47" value="pool" style="rounded=0;whiteSpace=wrap;html=1;" vertex="1" parent="1">
          <mxGeometry x="-130" y="410" width="100" height="40" as="geometry" />
        </mxCell>
        <mxCell id="1J7TocMi_kV23fuvjRg4-48" value="temp_pool" style="rounded=0;whiteSpace=wrap;html=1;" vertex="1" parent="1">
          <mxGeometry x="-130" y="450" width="100" height="40" as="geometry" />
        </mxCell>
        <mxCell id="1J7TocMi_kV23fuvjRg4-49" value="计算hash值" style="text;html=1;align=center;verticalAlign=middle;whiteSpace=wrap;rounded=0;" vertex="1" parent="1">
          <mxGeometry x="-30" y="260" width="60" height="30" as="geometry" />
        </mxCell>
        <mxCell id="1J7TocMi_kV23fuvjRg4-51" value="hash表" style="text;html=1;align=center;verticalAlign=middle;whiteSpace=wrap;rounded=0;" vertex="1" parent="1">
          <mxGeometry x="120" y="240" width="60" height="30" as="geometry" />
        </mxCell>
        <mxCell id="1J7TocMi_kV23fuvjRg4-52" value="桶底" style="text;html=1;align=center;verticalAlign=middle;whiteSpace=wrap;rounded=0;" vertex="1" parent="1">
          <mxGeometry x="640" y="330" width="60" height="30" as="geometry" />
        </mxCell>
        <mxCell id="1J7TocMi_kV23fuvjRg4-54" value="桶底" style="text;html=1;align=center;verticalAlign=middle;whiteSpace=wrap;rounded=0;" vertex="1" parent="1">
          <mxGeometry x="840" y="330" width="60" height="30" as="geometry" />
        </mxCell>
        <mxCell id="1J7TocMi_kV23fuvjRg4-55" value="桶底" style="text;html=1;align=center;verticalAlign=middle;whiteSpace=wrap;rounded=0;" vertex="1" parent="1">
          <mxGeometry x="1140" y="330" width="60" height="30" as="geometry" />
        </mxCell>
      </root>
    </mxGraphModel>
  </diagram>
</mxfile>
